<svg width="33" height="29" viewBox="0 0 33 29" fill="none" xmlns="http://www.w3.org/2000/svg">
<path d="M1 26.364V23.7276H4.29551H7.59101V11.8638V0H9.89786H12.2047V7.51375V15.0934L15.5661 12.7866C18.3344 10.9411 19.5207 10.5456 22.4208 10.5456C25.2549 10.5456 26.3095 10.8752 28.0891 12.3252C31.6482 15.3571 33.0982 21.1571 31.1209 25.0458C29.4732 28.4073 26.9027 29.0004 13.3911 29.0004H1V26.364ZM26.5731 22.9367C27.0345 22.4753 27.364 21.3549 27.364 20.3662C27.364 16.873 22.289 14.698 18.598 16.5434C16.4889 17.6639 11.5456 22.5413 11.9411 23.2004C12.4684 24.0572 25.6504 23.8595 26.5731 22.9367Z" fill="#FF2151"/>
<path d="M7.90921 16.4775V5.27281H3.95461H0V2.6364V0H11.2047H22.4094V2.6364V5.27281H18.4548H14.5002V16.4775V27.6822H11.2047H7.90921V16.4775Z" fill="#FF2151"/>
</svg>
